<?xml version="1.0" encoding="UTF-8"?>
<!DOCTYPE svg PUBLIC "-//W3C//DTD SVG 1.1//EN"
 "http://www.w3.org/Graphics/SVG/1.1/DTD/svg11.dtd">
<svg xmlns="http://www.w3.org/2000/svg" version="1.1"
     width="180mm" height="25mm"
     viewBox="0 0 100 1" preserveAspectRatio="none"
     shape-rendering="crispEdges" stroke="none">
<rect width="1" height=".96" x="0" y="0" fill="#4E8168" />
<rect width="1" height=".96" x="1" y="0" fill="#4F8268" />
<rect width="1" height=".96" x="2" y="0" fill="#508368" />
<rect width="1" height=".96" x="3" y="0" fill="#518468" />
<rect width="1" height=".96" x="4" y="0" fill="#528568" />
<rect width="1" height=".96" x="5" y="0" fill="#538668" />
<rect width="1" height=".96" x="6" y="0" fill="#558769" />
<rect width="1" height=".96" x="7" y="0" fill="#568869" />
<rect width="1" height=".96" x="8" y="0" fill="#578969" />
<rect width="1" height=".96" x="9" y="0" fill="#588A69" />
<rect width="1" height=".96" x="10" y="0" fill="#598B69" />
<rect width="1" height=".96" x="11" y="0" fill="#5B8C69" />
<rect width="1" height=".96" x="12" y="0" fill="#5C8D69" />
<rect width="1" height=".96" x="13" y="0" fill="#5D8D69" />
<rect width="1" height=".96" x="14" y="0" fill="#5F8E69" />
<rect width="1" height=".96" x="15" y="0" fill="#608F69" />
<rect width="1" height=".96" x="16" y="0" fill="#619069" />
<rect width="1" height=".96" x="17" y="0" fill="#639169" />
<rect width="1" height=".96" x="18" y="0" fill="#649269" />
<rect width="1" height=".96" x="19" y="0" fill="#659369" />
<rect width="1" height=".96" x="20" y="0" fill="#679469" />
<rect width="1" height=".96" x="21" y="0" fill="#689569" />
<rect width="1" height=".96" x="22" y="0" fill="#6A9669" />
<rect width="1" height=".96" x="23" y="0" fill="#6B9669" />
<rect width="1" height=".96" x="24" y="0" fill="#6D9769" />
<rect width="1" height=".96" x="25" y="0" fill="#6E9869" />
<rect width="1" height=".96" x="26" y="0" fill="#709969" />
<rect width="1" height=".96" x="27" y="0" fill="#719A69" />
<rect width="1" height=".96" x="28" y="0" fill="#739B69" />
<rect width="1" height=".96" x="29" y="0" fill="#749C69" />
<rect width="1" height=".96" x="30" y="0" fill="#769C69" />
<rect width="1" height=".96" x="31" y="0" fill="#779D69" />
<rect width="1" height=".96" x="32" y="0" fill="#799E69" />
<rect width="1" height=".96" x="33" y="0" fill="#7B9F69" />
<rect width="1" height=".96" x="34" y="0" fill="#7CA069" />
<rect width="1" height=".96" x="35" y="0" fill="#7EA169" />
<rect width="1" height=".96" x="36" y="0" fill="#80A269" />
<rect width="1" height=".96" x="37" y="0" fill="#81A269" />
<rect width="1" height=".96" x="38" y="0" fill="#83A369" />
<rect width="1" height=".96" x="39" y="0" fill="#85A469" />
<rect width="1" height=".96" x="40" y="0" fill="#86A569" />
<rect width="1" height=".96" x="41" y="0" fill="#88A669" />
<rect width="1" height=".96" x="42" y="0" fill="#8AA669" />
<rect width="1" height=".96" x="43" y="0" fill="#8CA769" />
<rect width="1" height=".96" x="44" y="0" fill="#8DA869" />
<rect width="1" height=".96" x="45" y="0" fill="#8FA969" />
<rect width="1" height=".96" x="46" y="0" fill="#91AA69" />
<rect width="1" height=".96" x="47" y="0" fill="#93AA69" />
<rect width="1" height=".96" x="48" y="0" fill="#95AB69" />
<rect width="1" height=".96" x="49" y="0" fill="#96AC69" />
<rect width="1" height=".96" x="50" y="0" fill="#98AD69" />
<rect width="1" height=".96" x="51" y="0" fill="#9AAE69" />
<rect width="1" height=".96" x="52" y="0" fill="#9CAE69" />
<rect width="1" height=".96" x="53" y="0" fill="#9EAF69" />
<rect width="1" height=".96" x="54" y="0" fill="#A0B069" />
<rect width="1" height=".96" x="55" y="0" fill="#A2B169" />
<rect width="1" height=".96" x="56" y="0" fill="#A4B169" />
<rect width="1" height=".96" x="57" y="0" fill="#A6B269" />
<rect width="1" height=".96" x="58" y="0" fill="#A8B369" />
<rect width="1" height=".96" x="59" y="0" fill="#AAB469" />
<rect width="1" height=".96" x="60" y="0" fill="#ABB469" />
<rect width="1" height=".96" x="61" y="0" fill="#ADB569" />
<rect width="1" height=".96" x="62" y="0" fill="#AFB669" />
<rect width="1" height=".96" x="63" y="0" fill="#B1B669" />
<rect width="1" height=".96" x="64" y="0" fill="#B4B769" />
<rect width="1" height=".96" x="65" y="0" fill="#B6B869" />
<rect width="1" height=".96" x="66" y="0" fill="#B8B969" />
<rect width="1" height=".96" x="67" y="0" fill="#BAB96A" />
<rect width="1" height=".96" x="68" y="0" fill="#BCBA6A" />
<rect width="1" height=".96" x="69" y="0" fill="#BEBB6A" />
<rect width="1" height=".96" x="70" y="0" fill="#C0BB6A" />
<rect width="1" height=".96" x="71" y="0" fill="#C2BC6A" />
<rect width="1" height=".96" x="72" y="0" fill="#C4BD6A" />
<rect width="1" height=".96" x="73" y="0" fill="#C6BD6B" />
<rect width="1" height=".96" x="74" y="0" fill="#C8BE6B" />
<rect width="1" height=".96" x="75" y="0" fill="#CABF6B" />
<rect width="1" height=".96" x="76" y="0" fill="#CDBF6B" />
<rect width="1" height=".96" x="77" y="0" fill="#CFC06C" />
<rect width="1" height=".96" x="78" y="0" fill="#D1C06C" />
<rect width="1" height=".96" x="79" y="0" fill="#D3C16C" />
<rect width="1" height=".96" x="80" y="0" fill="#D5C26D" />
<rect width="1" height=".96" x="81" y="0" fill="#D7C26D" />
<rect width="1" height=".96" x="82" y="0" fill="#DAC36D" />
<rect width="1" height=".96" x="83" y="0" fill="#DCC36E" />
<rect width="1" height=".96" x="84" y="0" fill="#DEC46E" />
<rect width="1" height=".96" x="85" y="0" fill="#E0C56E" />
<rect width="1" height=".96" x="86" y="0" fill="#E3C56F" />
<rect width="1" height=".96" x="87" y="0" fill="#E5C66F" />
<rect width="1" height=".96" x="88" y="0" fill="#E7C670" />
<rect width="1" height=".96" x="89" y="0" fill="#E9C770" />
<rect width="1" height=".96" x="90" y="0" fill="#ECC771" />
<rect width="1" height=".96" x="91" y="0" fill="#EEC871" />
<rect width="1" height=".96" x="92" y="0" fill="#F0C872" />
<rect width="1" height=".96" x="93" y="0" fill="#F2C973" />
<rect width="1" height=".96" x="94" y="0" fill="#F5CA73" />
<rect width="1" height=".96" x="95" y="0" fill="#F7CA74" />
<rect width="1" height=".96" x="96" y="0" fill="#F9CB74" />
<rect width="1" height=".96" x="97" y="0" fill="#FCCB75" />
<rect width="1" height=".96" x="98" y="0" fill="#FECC76" />
<rect width="1" height=".96" x="99" y="0" fill="#FFCC76" />
</svg>