<?xml version="1.0" encoding="UTF-8"?>
<!DOCTYPE svg PUBLIC "-//W3C//DTD SVG 1.1//EN"
 "http://www.w3.org/Graphics/SVG/1.1/DTD/svg11.dtd">
<svg xmlns="http://www.w3.org/2000/svg" version="1.1"
     width="180mm" height="25mm"
     viewBox="0 0 100 1" preserveAspectRatio="none"
     shape-rendering="crispEdges" stroke="none">
<rect width="1" height=".96" x="0" y="0" fill="#2E3F36" />
<rect width="1" height=".96" x="1" y="0" fill="#2F4137" />
<rect width="1" height=".96" x="2" y="0" fill="#304238" />
<rect width="1" height=".96" x="3" y="0" fill="#304439" />
<rect width="1" height=".96" x="4" y="0" fill="#314539" />
<rect width="1" height=".96" x="5" y="0" fill="#33473A" />
<rect width="1" height=".96" x="6" y="0" fill="#34483B" />
<rect width="1" height=".96" x="7" y="0" fill="#354A3C" />
<rect width="1" height=".96" x="8" y="0" fill="#364B3D" />
<rect width="1" height=".96" x="9" y="0" fill="#374D3E" />
<rect width="1" height=".96" x="10" y="0" fill="#384E3E" />
<rect width="1" height=".96" x="11" y="0" fill="#39503F" />
<rect width="1" height=".96" x="12" y="0" fill="#3A5140" />
<rect width="1" height=".96" x="13" y="0" fill="#3C5341" />
<rect width="1" height=".96" x="14" y="0" fill="#3D5442" />
<rect width="1" height=".96" x="15" y="0" fill="#3E5642" />
<rect width="1" height=".96" x="16" y="0" fill="#3F5743" />
<rect width="1" height=".96" x="17" y="0" fill="#415944" />
<rect width="1" height=".96" x="18" y="0" fill="#425A44" />
<rect width="1" height=".96" x="19" y="0" fill="#435C45" />
<rect width="1" height=".96" x="20" y="0" fill="#455D46" />
<rect width="1" height=".96" x="21" y="0" fill="#465F46" />
<rect width="1" height=".96" x="22" y="0" fill="#486047" />
<rect width="1" height=".96" x="23" y="0" fill="#496248" />
<rect width="1" height=".96" x="24" y="0" fill="#4B6448" />
<rect width="1" height=".96" x="25" y="0" fill="#4C6549" />
<rect width="1" height=".96" x="26" y="0" fill="#4E674A" />
<rect width="1" height=".96" x="27" y="0" fill="#4F684A" />
<rect width="1" height=".96" x="28" y="0" fill="#516A4B" />
<rect width="1" height=".96" x="29" y="0" fill="#536B4B" />
<rect width="1" height=".96" x="30" y="0" fill="#546D4C" />
<rect width="1" height=".96" x="31" y="0" fill="#566E4D" />
<rect width="1" height=".96" x="32" y="0" fill="#58704D" />
<rect width="1" height=".96" x="33" y="0" fill="#59714E" />
<rect width="1" height=".96" x="34" y="0" fill="#5B734E" />
<rect width="1" height=".96" x="35" y="0" fill="#5D744F" />
<rect width="1" height=".96" x="36" y="0" fill="#5F764F" />
<rect width="1" height=".96" x="37" y="0" fill="#617750" />
<rect width="1" height=".96" x="38" y="0" fill="#637950" />
<rect width="1" height=".96" x="39" y="0" fill="#647A51" />
<rect width="1" height=".96" x="40" y="0" fill="#667C51" />
<rect width="1" height=".96" x="41" y="0" fill="#687D52" />
<rect width="1" height=".96" x="42" y="0" fill="#6A7F52" />
<rect width="1" height=".96" x="43" y="0" fill="#6C8053" />
<rect width="1" height=".96" x="44" y="0" fill="#6E8253" />
<rect width="1" height=".96" x="45" y="0" fill="#708354" />
<rect width="1" height=".96" x="46" y="0" fill="#728554" />
<rect width="1" height=".96" x="47" y="0" fill="#748655" />
<rect width="1" height=".96" x="48" y="0" fill="#778855" />
<rect width="1" height=".96" x="49" y="0" fill="#798956" />
<rect width="1" height=".96" x="50" y="0" fill="#7B8B56" />
<rect width="1" height=".96" x="51" y="0" fill="#7D8C57" />
<rect width="1" height=".96" x="52" y="0" fill="#7F8E57" />
<rect width="1" height=".96" x="53" y="0" fill="#828F57" />
<rect width="1" height=".96" x="54" y="0" fill="#849058" />
<rect width="1" height=".96" x="55" y="0" fill="#869258" />
<rect width="1" height=".96" x="56" y="0" fill="#889359" />
<rect width="1" height=".96" x="57" y="0" fill="#8B9559" />
<rect width="1" height=".96" x="58" y="0" fill="#8D965A" />
<rect width="1" height=".96" x="59" y="0" fill="#90985A" />
<rect width="1" height=".96" x="60" y="0" fill="#92995B" />
<rect width="1" height=".96" x="61" y="0" fill="#949A5B" />
<rect width="1" height=".96" x="62" y="0" fill="#979C5C" />
<rect width="1" height=".96" x="63" y="0" fill="#999D5C" />
<rect width="1" height=".96" x="64" y="0" fill="#9C9F5D" />
<rect width="1" height=".96" x="65" y="0" fill="#9EA05D" />
<rect width="1" height=".96" x="66" y="0" fill="#A1A25E" />
<rect width="1" height=".96" x="67" y="0" fill="#A3A35E" />
<rect width="1" height=".96" x="68" y="0" fill="#A6A45F" />
<rect width="1" height=".96" x="69" y="0" fill="#A9A65F" />
<rect width="1" height=".96" x="70" y="0" fill="#ABA760" />
<rect width="1" height=".96" x="71" y="0" fill="#AEA860" />
<rect width="1" height=".96" x="72" y="0" fill="#B1AA61" />
<rect width="1" height=".96" x="73" y="0" fill="#B3AB62" />
<rect width="1" height=".96" x="74" y="0" fill="#B6AD62" />
<rect width="1" height=".96" x="75" y="0" fill="#B9AE63" />
<rect width="1" height=".96" x="76" y="0" fill="#BCAF63" />
<rect width="1" height=".96" x="77" y="0" fill="#BEB164" />
<rect width="1" height=".96" x="78" y="0" fill="#C1B265" />
<rect width="1" height=".96" x="79" y="0" fill="#C4B365" />
<rect width="1" height=".96" x="80" y="0" fill="#C7B466" />
<rect width="1" height=".96" x="81" y="0" fill="#CAB667" />
<rect width="1" height=".96" x="82" y="0" fill="#CCB767" />
<rect width="1" height=".96" x="83" y="0" fill="#CFB868" />
<rect width="1" height=".96" x="84" y="0" fill="#D2BA69" />
<rect width="1" height=".96" x="85" y="0" fill="#D5BB6A" />
<rect width="1" height=".96" x="86" y="0" fill="#D8BC6A" />
<rect width="1" height=".96" x="87" y="0" fill="#DBBD6B" />
<rect width="1" height=".96" x="88" y="0" fill="#DEBF6C" />
<rect width="1" height=".96" x="89" y="0" fill="#E1C06D" />
<rect width="1" height=".96" x="90" y="0" fill="#E4C16E" />
<rect width="1" height=".96" x="91" y="0" fill="#E7C26F" />
<rect width="1" height=".96" x="92" y="0" fill="#EAC46F" />
<rect width="1" height=".96" x="93" y="0" fill="#EDC570" />
<rect width="1" height=".96" x="94" y="0" fill="#F0C671" />
<rect width="1" height=".96" x="95" y="0" fill="#F4C772" />
<rect width="1" height=".96" x="96" y="0" fill="#F7C973" />
<rect width="1" height=".96" x="97" y="0" fill="#FACA74" />
<rect width="1" height=".96" x="98" y="0" fill="#FDCB75" />
<rect width="1" height=".96" x="99" y="0" fill="#FFCC76" />
</svg>