<?xml version="1.0" encoding="UTF-8"?>
<!DOCTYPE svg PUBLIC "-//W3C//DTD SVG 1.1//EN"
 "http://www.w3.org/Graphics/SVG/1.1/DTD/svg11.dtd">
<svg xmlns="http://www.w3.org/2000/svg" version="1.1"
     width="180mm" height="25mm"
     viewBox="0 0 100 1" preserveAspectRatio="none"
     shape-rendering="crispEdges" stroke="none">
<rect width="1" height=".96" x="0" y="0" fill="#8AA8A1" />
<rect width="1" height=".96" x="1" y="0" fill="#89A9A1" />
<rect width="1" height=".96" x="2" y="0" fill="#89A9A0" />
<rect width="1" height=".96" x="3" y="0" fill="#88AAA0" />
<rect width="1" height=".96" x="4" y="0" fill="#88AAA0" />
<rect width="1" height=".96" x="5" y="0" fill="#88ABA0" />
<rect width="1" height=".96" x="6" y="0" fill="#87ABA0" />
<rect width="1" height=".96" x="7" y="0" fill="#87AC9F" />
<rect width="1" height=".96" x="8" y="0" fill="#87AC9F" />
<rect width="1" height=".96" x="9" y="0" fill="#86AD9F" />
<rect width="1" height=".96" x="10" y="0" fill="#86AD9F" />
<rect width="1" height=".96" x="11" y="0" fill="#86AE9E" />
<rect width="1" height=".96" x="12" y="0" fill="#86AE9E" />
<rect width="1" height=".96" x="13" y="0" fill="#85AF9D" />
<rect width="1" height=".96" x="14" y="0" fill="#85AF9D" />
<rect width="1" height=".96" x="15" y="0" fill="#85B09D" />
<rect width="1" height=".96" x="16" y="0" fill="#85B09C" />
<rect width="1" height=".96" x="17" y="0" fill="#85B19C" />
<rect width="1" height=".96" x="18" y="0" fill="#85B19B" />
<rect width="1" height=".96" x="19" y="0" fill="#85B19B" />
<rect width="1" height=".96" x="20" y="0" fill="#85B29A" />
<rect width="1" height=".96" x="21" y="0" fill="#85B29A" />
<rect width="1" height=".96" x="22" y="0" fill="#85B399" />
<rect width="1" height=".96" x="23" y="0" fill="#85B398" />
<rect width="1" height=".96" x="24" y="0" fill="#85B498" />
<rect width="1" height=".96" x="25" y="0" fill="#86B497" />
<rect width="1" height=".96" x="26" y="0" fill="#86B496" />
<rect width="1" height=".96" x="27" y="0" fill="#86B596" />
<rect width="1" height=".96" x="28" y="0" fill="#86B595" />
<rect width="1" height=".96" x="29" y="0" fill="#87B594" />
<rect width="1" height=".96" x="30" y="0" fill="#87B694" />
<rect width="1" height=".96" x="31" y="0" fill="#88B693" />
<rect width="1" height=".96" x="32" y="0" fill="#88B792" />
<rect width="1" height=".96" x="33" y="0" fill="#88B791" />
<rect width="1" height=".96" x="34" y="0" fill="#89B790" />
<rect width="1" height=".96" x="35" y="0" fill="#89B890" />
<rect width="1" height=".96" x="36" y="0" fill="#8AB88F" />
<rect width="1" height=".96" x="37" y="0" fill="#8BB88E" />
<rect width="1" height=".96" x="38" y="0" fill="#8BB98D" />
<rect width="1" height=".96" x="39" y="0" fill="#8CB98C" />
<rect width="1" height=".96" x="40" y="0" fill="#8DB98B" />
<rect width="1" height=".96" x="41" y="0" fill="#8DBA8A" />
<rect width="1" height=".96" x="42" y="0" fill="#8EBA89" />
<rect width="1" height=".96" x="43" y="0" fill="#8FBA88" />
<rect width="1" height=".96" x="44" y="0" fill="#90BA87" />
<rect width="1" height=".96" x="45" y="0" fill="#91BB86" />
<rect width="1" height=".96" x="46" y="0" fill="#91BB85" />
<rect width="1" height=".96" x="47" y="0" fill="#92BB84" />
<rect width="1" height=".96" x="48" y="0" fill="#93BC83" />
<rect width="1" height=".96" x="49" y="0" fill="#94BC82" />
<rect width="1" height=".96" x="50" y="0" fill="#95BC81" />
<rect width="1" height=".96" x="51" y="0" fill="#96BC80" />
<rect width="1" height=".96" x="52" y="0" fill="#97BC7F" />
<rect width="1" height=".96" x="53" y="0" fill="#98BD7E" />
<rect width="1" height=".96" x="54" y="0" fill="#9ABD7D" />
<rect width="1" height=".96" x="55" y="0" fill="#9BBD7C" />
<rect width="1" height=".96" x="56" y="0" fill="#9CBD7B" />
<rect width="1" height=".96" x="57" y="0" fill="#9DBD7A" />
<rect width="1" height=".96" x="58" y="0" fill="#9EBE79" />
<rect width="1" height=".96" x="59" y="0" fill="#9FBE78" />
<rect width="1" height=".96" x="60" y="0" fill="#A1BE77" />
<rect width="1" height=".96" x="61" y="0" fill="#A2BE76" />
<rect width="1" height=".96" x="62" y="0" fill="#A3BE75" />
<rect width="1" height=".96" x="63" y="0" fill="#A5BE74" />
<rect width="1" height=".96" x="64" y="0" fill="#A6BF72" />
<rect width="1" height=".96" x="65" y="0" fill="#A7BF71" />
<rect width="1" height=".96" x="66" y="0" fill="#A9BF70" />
<rect width="1" height=".96" x="67" y="0" fill="#AABF6F" />
<rect width="1" height=".96" x="68" y="0" fill="#ACBF6E" />
<rect width="1" height=".96" x="69" y="0" fill="#ADBF6D" />
<rect width="1" height=".96" x="70" y="0" fill="#AEBF6C" />
<rect width="1" height=".96" x="71" y="0" fill="#B0BF6B" />
<rect width="1" height=".96" x="72" y="0" fill="#B1BF6A" />
<rect width="1" height=".96" x="73" y="0" fill="#B3BF69" />
<rect width="1" height=".96" x="74" y="0" fill="#B5BF68" />
<rect width="1" height=".96" x="75" y="0" fill="#B6BF67" />
<rect width="1" height=".96" x="76" y="0" fill="#B8BF66" />
<rect width="1" height=".96" x="77" y="0" fill="#B9BF64" />
<rect width="1" height=".96" x="78" y="0" fill="#BBBF63" />
<rect width="1" height=".96" x="79" y="0" fill="#BDBF62" />
<rect width="1" height=".96" x="80" y="0" fill="#BEBF61" />
<rect width="1" height=".96" x="81" y="0" fill="#C0BF60" />
<rect width="1" height=".96" x="82" y="0" fill="#C2BF5F" />
<rect width="1" height=".96" x="83" y="0" fill="#C3BF5E" />
<rect width="1" height=".96" x="84" y="0" fill="#C5BF5E" />
<rect width="1" height=".96" x="85" y="0" fill="#C7BF5D" />
<rect width="1" height=".96" x="86" y="0" fill="#C8BF5C" />
<rect width="1" height=".96" x="87" y="0" fill="#CABF5B" />
<rect width="1" height=".96" x="88" y="0" fill="#CCBF5A" />
<rect width="1" height=".96" x="89" y="0" fill="#CEBF59" />
<rect width="1" height=".96" x="90" y="0" fill="#D0BE58" />
<rect width="1" height=".96" x="91" y="0" fill="#D1BE57" />
<rect width="1" height=".96" x="92" y="0" fill="#D3BE57" />
<rect width="1" height=".96" x="93" y="0" fill="#D5BE56" />
<rect width="1" height=".96" x="94" y="0" fill="#D7BE55" />
<rect width="1" height=".96" x="95" y="0" fill="#D9BE54" />
<rect width="1" height=".96" x="96" y="0" fill="#DBBD54" />
<rect width="1" height=".96" x="97" y="0" fill="#DDBD53" />
<rect width="1" height=".96" x="98" y="0" fill="#DEBD52" />
<rect width="1" height=".96" x="99" y="0" fill="#E0BD52" />
</svg>